{
  "accessors": [
    {
      "bufferView": 1,
      "componentType": 5126,
      "count": 7681,
      "max": [
        0.967058539390564,
        1.5003830194473267,
        1.26235032081604
      ],
      "min": [
        -0.9677585363388062,
        -0.38349485397338867,
        0.4184659421443939
      ],
      "type": "VEC3"
    },
    {
      "bufferView": 1,
      "byteOffset": 92172,
      "componentType": 5126,
      "count": 7681,
      "max": [
        0.9978824257850647,
        0.999992847442627,
        0.9999068379402161
      ],
      "min": [
        -0.9980126619338989,
        -0.9997490048408508,
        -1.0
      ],
      "type": "VEC3"
    },
    {
      "bufferView": 0,
      "componentType": 5125,
      "count": 46074,
      "type": "SCALAR"
    }
  ],
  "asset": {
    "extras": {
      "author": "Kuco Enciso (https://sketchfab.com/kucoenciso)",
      "license": "CC-BY-4.0 (http://creativecommons.org/licenses/by/4.0/)",
      "source": "https://sketchfab.com/3d-models/sculpt-january-1-mouth-and-nose-76bb675fe92a411e97e73ce9be1bbc3a",
      "title": "Sculpt January #1 Mouth and Nose"
    },
    "generator": "Sketchfab-12.65.0",
    "version": "2.0"
  },
  "bufferViews": [
    {
      "buffer": 0,
      "byteLength": 184296,
      "name": "floatBufferViews",
      "target": 34963
    },
    {
      "buffer": 0,
      "byteLength": 184344,
      "byteOffset": 184296,
      "byteStride": 12,
      "name": "floatBufferViews",
      "target": 34962
    }
  ],
  "buffers": [
    {
      "byteLength": 368640,
      "uri": "scene.bin"
    }
  ],
  "materials": [
    {
      "doubleSided": true,
      "name": "narizBoca0",
      "pbrMetallicRoughness": {
        "baseColorFactor": [
          0.9504074917,
          0.4110188827,
          0.2078601487,
          1.0
        ],
        "metallicFactor": 0.0,
        "roughnessFactor": 0.5897484756
      }
    }
  ],
  "meshes": [
    {
      "name": "narizBoca_narizBoca0_0",
      "primitives": [
        {
          "attributes": {
            "NORMAL": 1,
            "POSITION": 0
          },
          "indices": 2,
          "material": 0,
          "mode": 4
        }
      ]
    }
  ],
  "nodes": [
    {
      "children": [
        1
      ],
      "matrix": [
        1.0,
        0.0,
        0.0,
        0.0,
        0.0,
        2.220446049250313e-16,
        -1.0,
        0.0,
        0.0,
        1.0,
        2.220446049250313e-16,
        0.0,
        0.0,
        0.0,
        0.0,
        1.0
      ],
      "name": "Sketchfab_model"
    },
    {
      "children": [
        2
      ],
      "matrix": [
        1.0,
        0.0,
        0.0,
        0.0,
        0.0,
        0.0,
        1.0,
        0.0,
        0.0,
        -1.0,
        0.0,
        0.0,
        0.0,
        0.0,
        0.0,
        1.0
      ],
      "name": "fa0592d32c784f3eb7da230a6a4a0a29.fbx"
    },
    {
      "children": [
        3
      ],
      "name": "RootNode"
    },
    {
      "children": [
        4
      ],
      "name": "narizBoca"
    },
    {
      "mesh": 0,
      "name": "narizBoca_narizBoca0_0"
    }
  ],
  "scene": 0,
  "scenes": [
    {
      "name": "Sketchfab_Scene",
      "nodes": [
        0
      ]
    }
  ]
}
